# xmcd CD database file
#
# Track frame offsets:
#	183
#	9915
#	30845
#	51978
#	75888
#	93740
#	110300
#	125530
#	142395
#	159788
#	180553
#	197778
#
# Disc length: 2908 seconds
#
# Revision: 5
# Processed by: cddbd v1.5.2PL0 Copyright (c) Steve Scherf et al.
# Submitted via: CDex 1.70beta2
#
DISCID=8f0b5a0c
DTITLE=Deee-Lite - World Clique
DYEAR=1990
DGENRE=Dance
TTITLE0=Deee-Lite Theme
TTITLE1=Good Beat
TTITLE2=Power Of Love
TTITLE3=Try Me On...I'm Very You
TTITLE4=Smile On
TTITLE5=What Is Love?
TTITLE6=World Clique
TTITLE7=E.S.P.
TTITLE8=Groove Is In The Heart
TTITLE9=Who Was That?
TTITLE10=Deep Ending
TTITLE11=Build The Bridge
EXTD=YEAR: 1990
EXTT0=
EXTT1=
EXTT2=
EXTT3=
EXTT4=
EXTT5=
EXTT6=
EXTT7=
EXTT8=
EXTT9=
EXTT10=
EXTT11=
PLAYORDER=
